<?xml version="1.0" encoding="UTF-8"?>
<svg id="Layer_1" xmlns="http://www.w3.org/2000/svg" version="1.1" xmlns:xlink="http://www.w3.org/1999/xlink" viewBox="0 0 173 45">
  <!-- Generator: Adobe Illustrator 29.1.0, SVG Export Plug-In . SVG Version: 2.1.0 Build 142)  -->
  <defs>
    <style>
      .st0 {
        fill: #0067ac;
      }

      .st1 {
        fill: url(#radial-gradient);
      }

      .st2 {
        fill: url(#radial-gradient1);
      }

      .st3 {
        fill: #00305b;
      }

      .st4 {
        fill: #005087;
      }
    </style>
    <radialGradient id="radial-gradient" cx="-1594.1" cy="90" fx="-1594.1" fy="90" r="1" gradientTransform="translate(18325 -1001.9) scale(11.5)" gradientUnits="userSpaceOnUse">
      <stop offset="0" stop-color="#fff"/>
      <stop offset="1" stop-color="#005087"/>
    </radialGradient>
    <radialGradient id="radial-gradient1" cx="-1674.4" cy="42.4" fx="-1674.4" fy="42.4" r="1" gradientTransform="translate(40868.4 -1037.8) scale(24.4)" gradientUnits="userSpaceOnUse">
      <stop offset="0" stop-color="#bee1c6"/>
      <stop offset="0" stop-color="#b0d9c5"/>
      <stop offset=".3" stop-color="#8dc4c3"/>
      <stop offset=".6" stop-color="#55a3c0"/>
      <stop offset="1" stop-color="#0876bc"/>
      <stop offset="1" stop-color="#0072bc"/>
    </radialGradient>
  </defs>
  <path class="st1" d="M32.4,44.4c0-.2-5.2-.4-11.6-.4s-11.6.2-11.6.4,5.2.5,11.6.5,11.6-.2,11.6-.5Z"/>
  <path class="st4" d="M37.6,19.3l-16.9,16.9L3.9,19.3l-3.9,3.9,20.8,20.8,20.7-20.8s-3.9-3.9-3.9-3.9Z"/>
  <path class="st2" d="M29.2,8.5c0,.1-.2.2-.3.3-.3.3-.7.4-1.1.4s-.8-.1-1.1-.4c-.3-.3-.5-.6-.5-1,0-.8-.3-1.5-.9-2.1-.7-.6-1.4-.9-2.3-.9s-1.7.3-2.3.9c-.6.6-.9,1.4-.9,2.1s-.2.7-.5,1-.7.4-1.1.4-.8-.1-1.1-.4c-.3-.3-.5-.6-.5-1.1s.2-.8.5-1c.3-.3.7-.4,1.1-.4.9,0,1.6-.3,2.2-.9s1-1.2,1-2,.2-1,.6-1.2c.2,0,.4-.2.6-.3l-1.9-1.9-2,2c.7.3,1.3,1.1,1,1.9-.3.7-1,.9-1.7,1-.8,0-1.5.3-2.1.9-.7.6-1,1.3-.9,2.1,0,.9.4,1.6,1,2.1.7.6,1.5.8,2.3.8s1,.3,1.2.6c.3.4.2,1,.4,1.6.1.5.5,1,.9,1.4.7.6,1.4.9,2.4.9s.8.2,1.1.5c.3.3.4.6.4,1s-.2.8-.5,1.1c-.3.3-.7.4-1.1.4s-.8-.1-1.1-.4c-.3-.3-.5-.6-.5-1.1,0-.8-.3-1.5-.9-2.1-.5-.4-1.1-.8-1.7-.9-.6-.1-1.3,0-1.8-.6-.4-.4-.4-1-.5-1.5-.1-.6-.4-1.1-.9-1.5-.5-.5-1.1-.8-1.8-.9-.6,0-1.3-.3-1.7-.7L3.1,17.6l17.6,17.6,17.6-17.6-9.1-9.1h0ZM23.1,13.7c-.5,0-.9-.1-1.2-.4s-.5-.7-.5-1.1.2-.8.5-1,.7-.4,1.1-.4.8.1,1.1.4.5.6.5,1c0,.9.3,1.6.9,2.2.7.6,1.4.9,2.4.9s.8.2,1.1.5c.3.3.4.6.4,1s-.2.8-.5,1.1c-.3.3-.7.4-1.1.4s-.8-.1-1.1-.4c-.3-.3-.5-.6-.5-1.1,0-.8-.3-1.5-.9-2.1s-1.3-.9-2.2-.9h0ZM19.3,26.6c-.3.3-.7.4-1.1.4s-.8-.1-1.1-.4c-.3-.3-.5-.6-.5-1,0-.8-.3-1.5-.9-2.1s-1.3-.9-2.2-.9-.9-.1-1.2-.4-.5-.6-.5-1.1.2-.8.5-1c.3-.3.7-.4,1.1-.4s.8.1,1.1.4.5.6.5,1c0,.9.3,1.6.9,2.2.7.6,1.4.9,2.3.9s.8.2,1.1.5c.3.3.4.6.4,1s-.2.8-.5,1h.1ZM28.9,22.2c-.3.3-.7.4-1.1.4-.9,0-1.6.3-2.3.8-.5.5-.9,1.1-.9,1.8s-.1,1.7-1.3,2c-1,.2-1.9-.6-1.9-1.6h0c0-.9-.4-1.6-1-2.1-.6-.6-1.3-.8-2.2-.8s-.8-.1-1.1-.4c-.3-.3-.5-.6-.5-1.1s.2-.8.5-1c.3-.3.7-.4,1.1-.4s.8.1,1.1.4.5.6.5,1c.1,2.8,3.5,4,5.5,2.1.6-.6.9-1.3.9-2.1s.2-.7.5-1,.7-.4,1.1-.4.8.1,1.1.4c.3.3.5.6.5,1s-.2.8-.5,1.1h0Z"/>
  <path class="st3" d="M172.3,22.9c-.5-.7-1.3-1.2-2.3-1.6-.5-.2-1-.4-1.5-.5s-1-.2-1.5-.4c-.8-.2-1.3-.4-1.6-.7-.3-.2-.4-.6-.4-1s0-.5.3-.8c.2-.2.4-.4.6-.5.3-.1.6-.2.8-.3h.9c.9,0,1.7.2,2.5.5.7.3,1.3.7,1.8,1.1v-3.7c-.5-.2-1.2-.4-1.8-.5-.9-.2-1.8-.3-2.7-.3-1.8,0-3.3.5-4.5,1.4s-1.8,2.2-1.8,3.7.2,2.1.8,2.8c.5.7,1.4,1.3,2.5,1.8.5.2,1.1.4,1.6.5.6.1,1.1.3,1.7.4.4.1.8.3,1.1.6.3.2.4.6.4,1s0,.7-.3.9c-.2.2-.4.4-.7.5-.2.1-.5.2-.9.2h-.9c-.9,0-1.8-.2-2.7-.6-.8-.3-1.6-.8-2.3-1.4v3.9c.6.3,1.2.5,1.9.7.9.2,1.9.4,3.1.4,2,0,3.6-.5,4.8-1.5,1.2-1,1.8-2.3,1.8-3.9s-.3-2-.8-2.7h0Z"/>
  <path class="st3" d="M116.2,14.6l-3.8,16.1h-4.2l-2.4-10-2.4,10h-4.2l-3.8-16.1h4l2.1,10.8,2.5-10.8h3.8l2.4,10.8,2.2-10.8h3.9,0Z"/>
  <path class="st3" d="M130.8,22.6c0,2.6-.7,4.7-2,6.1-1.3,1.5-3.1,2.2-5.4,2.2s-4.1-.8-5.4-2.3-2-3.6-2-6.1.6-4.6,2-6.1c1.3-1.5,3.1-2.3,5.4-2.3s4.1.8,5.4,2.2c1.3,1.5,2,3.6,2,6.2h0ZM126.9,22.6c0-1,0-1.8-.3-2.5-.2-.7-.4-1.2-.8-1.7-.3-.4-.7-.8-1.1-.9-.4-.2-.8-.3-1.3-.3s-.9,0-1.3.3c-.4.2-.7.5-1.1.9-.3.4-.6,1-.8,1.7-.2.7-.3,1.5-.3,2.5s0,1.8.3,2.5c.2.7.4,1.2.8,1.6.3.4.7.8,1.1,1s.8.3,1.3.3.9-.1,1.3-.3c.4-.2.8-.5,1.1-1,.3-.5.6-1,.8-1.6.2-.6.3-1.4.3-2.5h0Z"/>
  <path class="st3" d="M146.5,30.7h-4.6l-4.2-5.9h-1.4v5.9h-3.8V14.6h6.1c.8,0,1.6,0,2.2.2.6.1,1.2.3,1.7.7s1,.8,1.3,1.4.5,1.3.5,2.2-.3,2.2-.8,3-1.2,1.4-2.1,1.8l5.1,6.8h0ZM140.4,19.5c0-.4,0-.8-.2-1,0-.3-.4-.5-.7-.7-.2-.1-.5-.2-.8-.2h-2.4v4.3h1.1c.5,0,1,0,1.4-.1.4,0,.7-.2.9-.4.2-.2.4-.4.5-.7,0-.3.2-.6.2-1.1h0Z"/>
  <path class="st3" d="M160.7,30.7h-4.7l-4.2-6.6-.8,1.1v5.4h-3.9V14.5h3.9v7.2l4.9-7.2h4.5l-5.5,7.5,5.7,8.6h0Z"/>
  <g>
    <path class="st0" d="M45.8,26.5c1,.5,2.6,1,4.2,1s2.2-.5,2.2-1.3-.7-1.2-2.5-1.9c-2.7-1-4.5-2.5-4.5-4.9s2.4-5.1,6.5-5.1,3.3.4,4.4.8l-.9,3.5c-.7-.3-1.9-.8-3.5-.8s-2,.5-2,1.2.9,1.2,2.9,1.9c2.9,1.1,4.2,2.6,4.2,4.9s-2.2,5.2-6.9,5.2-3.8-.5-4.8-1l.8-3.6Z"/>
    <path class="st0" d="M74.2,22.5c0,5.2-3.1,8.5-8.1,8.5s-7.8-3.8-7.8-8.3,3.1-8.4,8-8.4,7.8,3.9,7.8,8.2ZM62.9,22.7c0,3,1.3,4.9,3.4,4.9s3.3-2,3.3-4.9-1.2-4.9-3.3-4.9-3.4,2-3.4,4.9Z"/>
    <path class="st0" d="M90.2,25c0-1.8,0-4,0-6.5h0c-.5,2.1-1.2,4.6-1.7,6.3l-1.6,5.6h-3.4l-1.4-5.6c-.4-1.8-.9-4.2-1.3-6.4h0c0,2.3-.2,4.7-.3,6.5l-.2,5.8h-4l1-16.2h5.8l1.1,4.3c.4,1.8.9,4,1.2,5.9h0c.5-2,1-4.2,1.5-6l1.2-4.3h5.7l.8,16.2h-4.2l-.2-5.8Z"/>
  </g>
</svg>